#!OML:ASF F:\VICON\USERDATA\INSTALL\rory3\rory3.ASF
:FULLY-SPECIFIED
:DEGREES
171
root 0.268087 18.0219 1.73965 -1.37357 2.55254 0.136356
lowerback 9.5608 -1.6529 -1.78483
upperback -0.169244 -2.27525 2.25736
thorax -5.38071 -1.04324 3.6858
lowerneck -16.6516 -2.94502 -1.84432
upperneck 24.1485 -3.50834 -0.537963
head 10.5223 -1.84804 -0.368746
rclavicle 1.28713e-014 8.74653e-015
rhumerus -38.0171 -33.0094 -67.2456
rradius 18.3215
rwrist 15.4423
rhand -19.4085 21.1241
rfingers 7.12502
rthumb 6.91083 -8.74312
lclavicle 1.28713e-014 8.74653e-015
lhumerus -25.73 -0.844965 82.7121
lradius 32.927
lwrist 8.30961
lhand -31.5058 21.5727
lfingers 7.12502
lthumb -4.77151 51.499
rfemur -24.9404 4.50263 21.829
rtibia 28.2813
rfoot -4.94593 -4.28398
rtoes 2.32124
lfemur 11.817 -3.15152 -22.2982
ltibia 34.8982
lfoot 7.59197 -12.6318
ltoes -22.7859
172
root 0.248738 18.0423 1.9449 -1.5052 2.50355 0.0209585
lowerback 9.53716 -1.63872 -1.62174
upperback -0.135988 -2.2382 2.25489
thorax -5.34142 -1.03052 3.58395
lowerneck -16.6664 -2.96616 -1.89454
upperneck 24.1646 -3.52251 -0.541929
head 10.5322 -1.8596 -0.364222
rclavicle -2.80783e-014 2.06736e-014
rhumerus -37.9656 -33.1794 -67.2488
rradius 18.2462
rwrist 15.5354
rhand -19.3599 20.666
rfingers 7.12502
rthumb 6.95776 -9.19966
lclavicle -2.80783e-014 2.06736e-014
lhumerus -26.4126 -0.694503 82.7478
lradius 33.2395
lwrist 8.48658
lhand -30.5971 23.6854
lfingers 7.12502
lthumb -3.89406 53.6295
rfemur -24.2775 4.40952 22.1995
rtibia 28.635
rfoot -5.00916 -3.97395
rtoes 4.52508
lfemur 10.8233 -2.88133 -21.8925
ltibia 37.1327
lfoot 10.2877 -13.8355
ltoes -19.905
173
root 0.222091 18.0688 2.13919 -1.50572 2.56551 -0.371256
lowerback 9.48548 -1.6837 -1.31023
upperback -0.118186 -2.25593 2.38974
thorax -5.29888 -1.04681 3.54923
lowerneck -16.7178 -2.89977 -1.92341
upperneck 24.0793 -3.41479 -0.554418
head 10.5107 -1.8142 -0.348695
rclavicle 1.76421e-015 3.18055e-015
rhumerus -37.6352 -32.7455 -67.63
rradius 18.3176
rwrist 14.9013
rhand -19.258 20.6659
rfingers 7.12502
rthumb 7.05608 -9.19648
lclavicle 1.76421e-015 3.18055e-015
lhumerus -26.8225 -0.210464 82.7802
lradius 33.308
lwrist 8.33566
lhand -29.0091 26.1426
lfingers 7.12502
lthumb -2.36049 56.1093
rfemur -23.6528 4.25553 22.9029
rtibia 28.7579
rfoot -5.00296 -3.61873
rtoes 6.68778
lfemur 9.33283 -2.78307 -21.1208
ltibia 39.5373
lfoot 12.4978 -14.7233
ltoes -17.6178
174
root 0.192217 18.107 2.33064 -1.63 2.48996 -0.877019
lowerback 9.64322 -1.687 -0.978156
upperback -0.109934 -2.21259 2.57698
thorax -5.38728 -1.03026 3.55922
lowerneck -16.8285 -2.82186 -1.83766
upperneck 24.0643 -3.29785 -0.660551
head 10.5219 -1.7654 -0.386116
rclavicle 1.36167e-014 -9.54166e-015
rhumerus -37.3983 -32.6471 -67.7668
rradius 18.2538
rwrist 14.6798
rhand -19.2978 21.2011
rfingers 7.12502
rthumb 7.01768 -8.66259
lclavicle 1.36167e-014 -9.54166e-015
lhumerus -27.1956 0.0225295 82.9197
lradius 33.283
lwrist 8.62161
lhand -28.3822 27.6186
lfingers 7.12502
lthumb -1.755 57.5911
rfemur -22.7977 4.44298 23.713
rtibia 28.6508
rfoot -4.84593 -3.53043
rtoes 7.63437
lfemur 7.63276 -2.68727 -20.2841
ltibia 42.1112
lfoot 15.6323 -15.4085
ltoes -16.7583
175
root 0.17059 18.1292 2.51386 -1.73223 2.45625 -1.30015
lowerback 9.8692 -1.6738 -0.583856
upperback -0.17565 -2.14116 2.68289
thorax -5.59893 -1.0002 3.44988
lowerneck -16.7225 -2.85909 -1.84585
upperneck 23.9925 -3.3429 -0.688007
head 10.4751 -1.79042 -0.398154
rclavicle 7.45443e-017 2.94201e-014
rhumerus -37.2604 -32.2812 -68.0373
rradius 18.3554
rwrist 14.3678
rhand -19.4531 21.1277
rfingers 7.12502
rthumb 6.86779 -8.74089
lclavicle 7.45443e-017 2.94201e-014
lhumerus -27.6857 -0.266305 83.2173
lradius 33.0103
lwrist 8.19474
lhand -28.5048 29.8957
lfingers 7.12502
lthumb -1.87341 59.8672
rfemur -21.9563 4.69657 24.3668
rtibia 28.4655
rfoot -4.56254 -3.75662
rtoes 9.47496
lfemur 6.32859 -2.59586 -19.5972
ltibia 44.7837
lfoot 17.8188 -15.9569
ltoes -11.4129
176
root 0.15781 18.1495 2.7059 -1.73375 2.58298 -1.70595
lowerback 9.96788 -1.67222 -0.00391711
upperback -0.321484 -2.06526 2.70915
thorax -5.83252 -0.974665 3.14807
lowerneck -16.3333 -2.95241 -1.78903
upperneck 23.708 -3.49591 -0.696538
head 10.2963 -1.85746 -0.421459
rclavicle 1.31943e-014 -8.74653e-015
rhumerus -37.1553 -30.9278 -68.8761
rradius 18.8739
rwrist 12.9873
rhand -19.9056 20.1849
rfingers 7.12502
rthumb 6.43099 -9.69747
lclavicle 1.31943e-014 -8.74653e-015
lhumerus -28.302 -1.36414 83.8261
lradius 32.274
lwrist 6.37493
lhand -29.7625 34.8448
lfingers 7.12502
lthumb -3.08807 64.8022
rfemur -21.1491 4.71231 24.9712
rtibia 28.2607
rfoot -4.64412 -3.98931
rtoes 10.7269
lfemur 4.85705 -2.64532 -18.9715
ltibia 47.4565
lfoot 20.8715 -16.9599
ltoes -3.60179
177
root 0.141794 18.1666 2.89717 -1.72923 2.64225 -2.19388
lowerback 9.97423 -1.62204 0.579534
upperback -0.428025 -1.92262 2.77224
thorax -5.97332 -0.918904 2.86812
lowerneck -16.0198 -3.01838 -1.82146
upperneck 23.5367 -3.6285 -0.533188
head 10.1791 -1.90262 -0.368743
rclavicle 1.66482e-014 3.97569e-015
rhumerus -37.0725 -30.3321 -69.2845
rradius 19.0759
rwrist 12.2796
rhand -19.9552 20.0767
rfingers 7.12502
rthumb 6.38305 -9.80716
lclavicle 1.66482e-014 3.97569e-015
lhumerus -28.628 -1.17027 83.6994
lradius 32.336
lwrist 8.05441
lhand -24.6998 35.0157
lfingers 7.12502
lthumb 1.80146 64.9879
rfemur -20.4374 4.93785 25.6682
rtibia 28.1866
rfoot -4.8975 -4.32991
rtoes 11.503
lfemur 3.28524 -2.63016 -18.2259
ltibia 50.0901
lfoot 22.1883 -17.5545
ltoes -1.48429
